<?xml version="1.0" encoding="utf-8"?>
<svg xmlns="http://www.w3.org/2000/svg" viewBox="0 0 64 64">
  <defs>
    <radialGradient id="night" cx="0.5" cy="0.4" r="0.9">
      <stop offset="0" stop-color="#13131e"/>
      <stop offset="0.6" stop-color="#0a0a10"/>
      <stop offset="1" stop-color="#07070b"/>
    </radialGradient>
  </defs>
  <rect width="64" height="64" rx="14" fill="url(#night)"/>
  <circle cx="31" cy="30" r="20.5" style="fill: rgb(182, 213, 236);"/>
  <path d="M8 24 C20 22.6 38 22.8 56 24.2 L56 27.4 C38 26 20 26 8 27.2 Z" fill="#0a0a10" opacity="0.28"/>
  <path d="M14 35 C26 33.8 42 34 54 35.2 L54 37.6 C42 36.6 26 36.6 14 37.8 Z" fill="#0a0a10" opacity="0.18"/>
  <path d="M32.8 10 C28.5 19.5 22.5 34.5 15.3 50.5 C14.4 52.6 16.9 54.2 18.2 52 C24.8 37.8 29.6 25 32.8 10 Z" style="fill: rgb(12, 12, 20);"/>
  <path d="M31.8 8 C36.3 16.8 43 32.5 50.8 49.8 C52 52.6 49 55.2 47 52.2 C39.8 37 33.6 23.2 29.4 13.8 C30 11.2 30.8 9 31.8 8 Z" style="fill: rgb(12, 12, 20);"/>
  <path d="M21.8 41.2 C28 40.2 36 39.2 44.6 38.6 C46.8 38.4 47 41 45 41.6 C36.6 42.8 28.4 43.8 22.6 44.4 C20.4 44.6 20 41.6 21.8 41.2 Z" style="fill: rgb(12, 12, 20);"/>
</svg>